<svg xmlns="http://www.w3.org/2000/svg" viewBox="0 0 780 240" role="img" aria-labelledby="title"><title id="title">La clau privada signa; la pública verifica. La confiança en la identitat requereix comprovar el certificat.</title><rect x="10" y="20" width="230" height="66" rx="8" fill="#eaf3f8" stroke="#22708c"/><text x="125.0" y="59" text-anchor="middle" fill="#102c3b" font-size="17" font-family="sans-serif">Document + clau privada</text><rect x="290" y="20" width="200" height="66" rx="8" fill="#eaf3f8" stroke="#22708c"/><text x="390.0" y="59" text-anchor="middle" fill="#102c3b" font-size="17" font-family="sans-serif">Crear signatura</text><rect x="540" y="20" width="230" height="66" rx="8" fill="#eaf3f8" stroke="#22708c"/><text x="655.0" y="59" text-anchor="middle" fill="#102c3b" font-size="17" font-family="sans-serif">Document signat</text><path d="M245 53h38m-8-7 8 7-8 7" fill="none" stroke="#22708c" stroke-width="2"/><path d="M495 53h38m-8-7 8 7-8 7" fill="none" stroke="#22708c" stroke-width="2"/><rect x="10" y="120" width="230" height="66" rx="8" fill="#eaf3f8" stroke="#22708c"/><text x="125.0" y="159" text-anchor="middle" fill="#102c3b" font-size="17" font-family="sans-serif">Signatura + clau pública</text><rect x="290" y="120" width="200" height="66" rx="8" fill="#eaf3f8" stroke="#22708c"/><text x="390.0" y="159" text-anchor="middle" fill="#102c3b" font-size="17" font-family="sans-serif">Verificar</text><rect x="540" y="120" width="230" height="66" rx="8" fill="#eaf3f8" stroke="#22708c"/><text x="655.0" y="159" text-anchor="middle" fill="#102c3b" font-size="17" font-family="sans-serif">Íntegre o alterat</text><path d="M245 153h38m-8-7 8 7-8 7" fill="none" stroke="#22708c" stroke-width="2"/><path d="M495 153h38m-8-7 8 7-8 7" fill="none" stroke="#22708c" stroke-width="2"/></svg>